<svg width="45" height="46" viewBox="0 0 45 46" fill="none" xmlns="http://www.w3.org/2000/svg">
<path d="M13.954 15.1588L31.9088 15.1588C33.0134 15.1588 33.9088 16.0542 33.9088 17.1588L33.9088 28.8408C33.9088 29.9453 33.0134 30.8408 31.9088 30.8408L13.954 30.8408C12.8495 30.8408 11.954 29.9453 11.954 28.8408L11.954 17.1588C11.954 16.0542 12.8495 15.1588 13.954 15.1588Z" stroke="#474C54" stroke-linecap="round"/>
<path d="M30.2485 18.8181L25.4194 23.6473C24.4128 24.6539 23.9095 25.1572 23.3051 25.2725C23.0575 25.3197 22.8032 25.3197 22.5556 25.2725C21.9512 25.1572 21.4479 24.6539 20.4414 23.6473L15.6122 18.8181" stroke="#F58220" stroke-linecap="round"/>
<path d="M15.613 27.1822L19.7946 23.0005M30.2493 27.1822L26.0676 23.0005" stroke="#F58220" stroke-linecap="round"/>
</svg>
