<svg width="45" height="46" viewBox="0 0 45 46" fill="none" xmlns="http://www.w3.org/2000/svg">
<mask id="path-1-inside-1_293_349" fill="white">
<path d="M32.0202 25.7863C32.6807 25.5233 33.0109 25.3918 33.2398 25.2109C33.5729 24.9478 33.7955 24.6196 33.9167 24.2128C34 23.9333 34 23.6221 34 22.9997V22.9997C34 22.3774 34 22.0663 33.9167 21.7867C33.7955 21.3801 33.5728 21.0517 33.2399 20.7887C33.011 20.6078 32.681 20.4764 32.0209 20.2135C31.4964 20.0046 31.2577 19.8217 31.0991 19.4388C30.9398 19.0555 30.9793 18.7555 31.2019 18.2376C31.4827 17.5844 31.6231 17.2578 31.6571 16.9688C31.7067 16.5463 31.6319 16.1568 31.4293 15.7827C31.2907 15.5268 31.0711 15.3073 30.632 14.8682V14.8682C30.1939 14.43 29.9748 14.2109 29.7192 14.0724C29.3452 13.8696 28.957 13.7949 28.5344 13.8442C28.2456 13.8779 27.9179 14.0183 27.2626 14.2991C26.7502 14.5186 26.4441 14.56 26.0602 14.4009C25.679 14.2425 25.4946 14.0023 25.2866 13.4816C25.022 12.8191 24.8897 12.4879 24.7092 12.2596C24.4453 11.9259 24.118 11.7042 23.7102 11.5829C23.4312 11.5 23.1206 11.5 22.4992 11.5V11.5C21.878 11.5 21.5674 11.5 21.2882 11.5831C20.8808 11.7043 20.5521 11.9272 20.2887 12.2609C20.1083 12.4895 19.977 12.8193 19.7143 13.4788C19.5058 14.0025 19.3224 14.242 18.9388 14.4009C18.548 14.5636 18.242 14.5216 17.7349 14.3025C17.0838 14.0211 16.7582 13.8804 16.4687 13.846C16.0465 13.7958 15.6549 13.8706 15.2809 14.0729C15.0245 14.2116 14.8058 14.4303 14.3685 14.8676V14.8676C13.9292 15.3069 13.7095 15.5266 13.5709 15.7825C13.3684 16.1565 13.2936 16.5456 13.3432 16.968C13.3771 17.2571 13.5176 17.5841 13.7987 18.2382C14.021 18.7557 14.0602 19.0555 13.9009 19.4398C13.742 19.8223 13.503 20.0055 12.9794 20.2142C12.3193 20.4772 11.9892 20.6087 11.7607 20.7891C11.427 21.0525 11.2043 21.381 11.083 21.7886C11 22.0677 11 22.3784 11 22.9998V22.9998C11 23.6211 11 23.9317 11.0829 24.2106C11.2041 24.6184 11.4261 24.946 11.7598 25.2098C11.9881 25.3902 12.319 25.5223 12.9809 25.7866C13.5023 25.9948 13.7424 26.1791 13.9009 26.5612C14.0607 26.947 14.0218 27.246 13.7995 27.7625C13.5185 28.4155 13.3779 28.742 13.3438 29.0309C13.2939 29.4538 13.3687 29.8438 13.5715 30.2182C13.7101 30.474 13.9295 30.6934 14.3683 31.1322V31.1322C14.8047 31.5686 15.0229 31.7868 15.2788 31.9254C15.6531 32.1282 16.0434 32.203 16.4662 32.153C16.7551 32.1189 17.0817 31.9783 17.7348 31.6971C18.239 31.48 18.5496 31.4368 18.9388 31.5991C19.3221 31.7581 19.5052 31.997 19.714 32.5211C19.9768 33.1808 20.1082 33.5107 20.2887 33.7393C20.5521 34.0729 20.8807 34.2957 21.288 34.4169C21.5672 34.5 21.8779 34.5 22.4994 34.5V34.5C23.1199 34.5 23.4302 34.5 23.7089 34.4172C24.1165 34.2962 24.443 34.0754 24.707 33.7421C24.8876 33.5143 25.0205 33.1829 25.2864 32.52C25.4952 31.9994 25.6822 31.7567 26.0688 31.5953C26.4567 31.4349 26.7587 31.4768 27.2654 31.6966C27.9144 31.978 28.2389 32.1187 28.5287 32.1535C28.9508 32.2041 29.3439 32.1293 29.7179 31.9271C29.9746 31.7883 30.1935 31.5694 30.6313 31.1316V31.1316C31.0705 30.6925 31.29 30.4729 31.4286 30.217C31.6313 29.843 31.706 29.4543 31.6565 29.0318C31.6227 28.7428 31.4821 28.4154 31.201 27.7607C30.9794 27.2445 30.9401 26.9439 31.0991 26.5602C31.2571 26.178 31.4959 25.9951 32.0202 25.7863Z"/>
</mask>
<path d="M31.0991 19.4388L32.0231 19.0563L32.0225 19.055L31.0991 19.4388ZM26.0602 14.4009L25.6766 15.3244L25.6774 15.3247L26.0602 14.4009ZM18.9388 14.4009L18.5561 13.477L18.5546 13.4777L18.9388 14.4009ZM13.9009 19.4398L14.8244 19.8234L14.8247 19.8227L13.9009 19.4398ZM13.9009 26.5612L14.8248 26.1785L14.8246 26.178L13.9009 26.5612ZM18.9388 31.5991L18.554 32.5221L18.5557 32.5228L18.9388 31.5991ZM26.0688 31.5953L25.6868 30.6712L25.6837 30.6724L26.0688 31.5953ZM31.0991 26.5602L32.0229 26.9431L32.0233 26.9421L31.0991 26.5602ZM31.4286 30.217L32.3079 30.6934L31.4286 30.217ZM31.6565 29.0318L32.6497 28.9155L31.6565 29.0318ZM27.2654 31.6966L26.8675 32.614L27.2654 31.6966ZM28.5287 32.1535L28.4096 33.1464L28.5287 32.1535ZM29.7179 31.9271L29.2423 31.0474L29.7179 31.9271ZM23.7089 34.4172L23.9936 35.3759L23.7089 34.4172ZM24.707 33.7421L23.9233 33.1211L24.707 33.7421ZM20.2887 33.7393L21.0736 33.1197L20.2887 33.7393ZM21.288 34.4169L21.0027 35.3754L21.288 34.4169ZM15.2788 31.9254L14.8025 32.8047L15.2788 31.9254ZM17.7348 31.6971L17.3393 30.7786L17.7348 31.6971ZM16.4662 32.153L16.5835 33.1461L16.4662 32.153ZM12.9809 25.7866L12.6101 26.7153L12.9809 25.7866ZM11.7598 25.2098L11.1397 25.9943L11.7598 25.2098ZM13.5709 15.7825L12.6916 15.3063L13.5709 15.7825ZM13.7987 18.2382L12.8799 18.633L13.7987 18.2382ZM13.3432 16.9681L12.35 17.0846L13.3432 16.9681ZM16.4687 13.846L16.5868 12.853L16.4687 13.846ZM15.281 14.0729L15.7567 14.9525L15.281 14.0729ZM21.2882 11.5831L21.5734 12.5415L21.2882 11.5831ZM19.7143 13.4788L18.7853 13.1088L19.7143 13.4788ZM13.7995 27.7625L12.881 27.3671L13.7995 27.7625ZM13.3438 29.0309L12.3507 28.9137L13.3438 29.0309ZM13.5715 30.2182L14.4508 29.7418L13.5715 30.2182ZM29.7192 14.0724L30.1958 13.1933L29.7192 14.0724ZM27.2626 14.2991L26.8687 13.3799L27.2626 14.2991ZM28.5344 13.8442L28.6503 14.8374L28.5344 13.8442ZM31.2019 18.2376L32.1206 18.6325L31.2019 18.2376ZM31.6571 16.9688L32.6502 17.0856L31.6571 16.9688ZM31.4293 15.7827L32.3086 15.3064L31.4293 15.7827ZM25.2866 13.4816L24.3579 13.8525L25.2866 13.4816ZM24.7092 12.2596L25.4937 11.6395L24.7092 12.2596ZM23.7102 11.5829L23.9951 10.6244L23.7102 11.5829ZM12.9794 20.2142L12.6092 19.2852L12.9794 20.2142ZM11.083 21.7886L10.1245 21.5034L11.083 21.7886ZM33.9167 21.7867L34.875 21.5011L33.9167 21.7867ZM33.2399 20.7887L33.8598 20.004L33.2399 20.7887ZM33.9167 24.2128L34.875 24.4985L33.9167 24.2128ZM33.2398 25.2109L33.8597 25.9956L33.2398 25.2109ZM32.3909 19.2845C32.1603 19.1926 32.0839 19.1405 32.0592 19.1201C32.0518 19.114 32.0513 19.1126 32.0509 19.112C32.0494 19.1099 32.0393 19.0955 32.0231 19.0563L30.1752 19.8214C30.3072 20.1403 30.4967 20.4238 30.7863 20.6627C31.0517 20.8818 31.357 21.0255 31.6509 21.1426L32.3909 19.2845ZM32.0225 19.055C32.0063 19.0159 32.0032 18.9985 32.0027 18.9956C32.0025 18.9947 32.0019 18.9928 32.0028 18.983C32.0059 18.9507 32.023 18.8596 32.1206 18.6325L30.2832 17.8427C30.1582 18.1335 30.0442 18.4514 30.0117 18.7943C29.9763 19.1682 30.0429 19.5031 30.1757 19.8226L32.0225 19.055ZM26.8687 13.3799C26.6459 13.4754 26.5536 13.4931 26.5188 13.4964C26.5073 13.4975 26.5039 13.4968 26.5019 13.4965C26.4982 13.4959 26.4808 13.4927 26.443 13.4771L25.6774 15.3247C25.9999 15.4584 26.336 15.5228 26.7077 15.4875C27.05 15.455 27.3669 15.3423 27.6564 15.2183L26.8687 13.3799ZM26.4438 13.4774C26.4054 13.4614 26.3911 13.4514 26.3887 13.4497C26.3877 13.449 26.3858 13.448 26.3793 13.4401C26.3584 13.4149 26.3062 13.3383 26.2152 13.1106L24.3579 13.8525C24.475 14.1456 24.6189 14.4495 24.8375 14.7141C25.0755 15.0021 25.3579 15.192 25.6766 15.3244L26.4438 13.4774ZM18.7853 13.1088C18.6937 13.3388 18.6416 13.4151 18.621 13.44C18.6148 13.4475 18.6132 13.4483 18.6124 13.4489C18.61 13.4505 18.5954 13.4607 18.5561 13.477L19.3216 15.3247C19.6409 15.1925 19.9244 15.0027 20.1634 14.7132C20.3826 14.4477 20.5264 14.1425 20.6434 13.8487L18.7853 13.1088ZM18.5546 13.4777C18.5142 13.4944 18.4949 13.4982 18.49 13.499C18.4869 13.4995 18.4835 13.5001 18.473 13.4991C18.4404 13.4961 18.3512 13.4794 18.1316 13.3845L17.3382 15.2204C17.6257 15.3447 17.943 15.4585 18.2879 15.4906C18.6616 15.5253 18.9993 15.4589 19.3231 15.3241L18.5546 13.4777ZM12.8799 18.633C12.9773 18.8596 12.9943 18.9504 12.9973 18.9826C12.9982 18.9925 12.9976 18.9946 12.9974 18.996C12.9968 18.9992 12.9935 19.0172 12.9771 19.0569L14.8247 19.8227C14.957 19.5035 15.0237 19.1689 14.9885 18.7952C14.9562 18.4521 14.8424 18.1343 14.7174 17.8434L12.8799 18.633ZM12.9774 19.0562C12.9611 19.0954 12.9509 19.11 12.9493 19.1123C12.9487 19.113 12.948 19.1147 12.9404 19.1209C12.9155 19.1414 12.8391 19.1936 12.6092 19.2852L13.3495 21.1431C13.6432 21.0261 13.9481 20.8824 14.2133 20.6635C14.5025 20.4249 14.6921 20.1419 14.8244 19.8234L12.9774 19.0562ZM12.6101 26.7153C12.8382 26.8064 12.9147 26.8586 12.9399 26.8795C12.9477 26.8859 12.9487 26.8878 12.9493 26.8888C12.9511 26.8912 12.9612 26.9057 12.9772 26.9443L14.8246 26.178C14.6922 25.859 14.5025 25.5763 14.2141 25.3379C13.9493 25.119 13.645 24.975 13.3517 24.8579L12.6101 26.7153ZM12.977 26.9438C12.9938 26.9844 12.9972 27.0029 12.9978 27.0065C12.9981 27.0082 12.9987 27.0103 12.9978 27.0198C12.9949 27.0512 12.9782 27.1412 12.881 27.3671L14.7181 28.1578C14.8431 27.8673 14.957 27.5495 14.9891 27.2058C15.0241 26.8318 14.9568 26.4973 14.8248 26.1785L12.977 26.9438ZM18.1303 32.6156C18.3475 32.522 18.4381 32.5047 18.4727 32.5015C18.4844 32.5004 18.4886 32.5011 18.492 32.5017C18.4969 32.5025 18.5155 32.506 18.554 32.5221L19.3237 30.6762C18.9979 30.5403 18.6593 30.4755 18.2871 30.5101C17.9431 30.5422 17.6263 30.655 17.3393 30.7786L18.1303 32.6156ZM18.5557 32.5228C18.5952 32.5392 18.6098 32.5494 18.6122 32.5511C18.613 32.5516 18.6146 32.5524 18.6207 32.5598C18.6412 32.5846 18.6933 32.6609 18.785 32.8911L20.643 32.151C20.526 31.8571 20.3821 31.552 20.163 31.2865C19.9241 30.9971 19.6407 30.8077 19.322 30.6754L18.5557 32.5228ZM26.2145 32.8922C26.3054 32.6656 26.3582 32.5884 26.3802 32.5618C26.3875 32.5531 26.3906 32.5508 26.3933 32.5489C26.3974 32.546 26.4136 32.535 26.454 32.5181L25.6837 30.6724C25.3639 30.8059 25.0806 30.9962 24.8416 31.284C24.6213 31.5493 24.4762 31.8537 24.3582 32.1477L26.2145 32.8922ZM26.4509 32.5194C26.4908 32.5029 26.5093 32.4995 26.5132 32.4988C26.5153 32.4985 26.5177 32.4979 26.5274 32.4989C26.5587 32.5018 26.6471 32.5184 26.8675 32.614L27.6632 30.7791C27.3769 30.655 27.061 30.5407 26.7177 30.5079C26.3449 30.4723 26.0087 30.5381 25.6868 30.6712L26.4509 32.5194ZM32.1199 27.3662C32.023 27.1405 32.006 27.0496 32.0029 27.0171C32.002 27.007 32.0026 27.0048 32.0029 27.0034C32.0034 27.0001 32.0066 26.9824 32.0229 26.9431L30.1753 26.1773C30.0429 26.4967 29.9766 26.8313 30.0117 27.2044C30.044 27.5472 30.1574 27.8647 30.2821 28.1552L32.1199 27.3662ZM32.0233 26.9421C32.0394 26.9033 32.0493 26.8892 32.0506 26.8874C32.0508 26.8871 32.0513 26.8857 32.0586 26.8796C32.0833 26.8593 32.1597 26.8071 32.3902 26.7153L31.6503 24.8572C31.3565 24.9742 31.0513 25.118 30.786 25.3368C30.4964 25.5757 30.3068 25.8591 30.1749 26.1783L32.0233 26.9421ZM31.3384 31.8387C31.7336 31.4435 32.0835 31.1076 32.3079 30.6934L30.5493 29.7407C30.4965 29.8382 30.4073 29.9414 29.9242 30.4245L31.3384 31.8387ZM30.2821 28.1552C30.5928 28.8788 30.6507 29.0408 30.6633 29.1481L32.6497 28.9155C32.5946 28.4448 32.3714 27.952 32.1199 27.3662L30.2821 28.1552ZM32.3079 30.6934C32.6086 30.1382 32.7231 29.5426 32.6497 28.9155L30.6633 29.1481C30.6888 29.3661 30.6539 29.5478 30.5493 29.7407L32.3079 30.6934ZM26.8675 32.614C27.4484 32.8659 27.9378 33.0898 28.4096 33.1464L28.6477 31.1606C28.5399 31.1477 28.3804 31.0901 27.6632 30.7791L26.8675 32.614ZM29.9242 30.4245C29.4428 30.9059 29.3403 30.9944 29.2423 31.0474L30.1934 32.8068C30.609 32.5821 30.9443 32.2329 31.3384 31.8387L29.9242 30.4245ZM28.4096 33.1464C29.0369 33.2216 29.6376 33.1072 30.1934 32.8068L29.2423 31.0474C29.0501 31.1513 28.8647 31.1866 28.6477 31.1606L28.4096 33.1464ZM22.4994 35.5C23.0579 35.5 23.5424 35.5098 23.9936 35.3759L23.4242 33.4586C23.318 33.4902 23.182 33.5 22.4994 33.5V35.5ZM24.3582 32.1477C24.0644 32.8804 23.9903 33.0365 23.9233 33.1211L25.4908 34.3632C25.7849 33.9921 25.9766 33.4853 26.2145 32.8922L24.3582 32.1477ZM23.9936 35.3759C24.5982 35.1963 25.099 34.8576 25.4908 34.3632L23.9233 33.1211C23.7869 33.2932 23.6347 33.3961 23.4242 33.4586L23.9936 35.3759ZM18.785 32.8911C19.0202 33.4815 19.2099 33.9867 19.5039 34.359L21.0736 33.1197C21.0065 33.0347 20.9335 32.8802 20.643 32.151L18.785 32.8911ZM22.4994 33.5C21.8157 33.5 21.6796 33.4901 21.5732 33.4585L21.0027 35.3754C21.4547 35.5099 21.9401 35.5 22.4994 35.5V33.5ZM19.5039 34.359C19.8949 34.8543 20.3979 35.1954 21.0027 35.3754L21.5732 33.4585C21.3634 33.396 21.2093 33.2915 21.0736 33.1197L19.5039 34.359ZM13.6612 31.8393C14.0541 32.2322 14.3884 32.5804 14.8025 32.8047L15.7551 31.0461C15.6575 30.9933 15.5554 30.905 15.0755 30.4251L13.6612 31.8393ZM17.3393 30.7786C16.6175 31.0894 16.4561 31.1473 16.3488 31.16L16.5835 33.1461C17.0541 33.0905 17.5458 32.8672 18.1303 32.6156L17.3393 30.7786ZM14.8025 32.8047C15.3582 33.1057 15.9559 33.2203 16.5835 33.1461L16.3488 31.16C16.1309 31.1857 15.948 31.1506 15.7551 31.0461L14.8025 32.8047ZM10 22.9998C10 23.5589 9.99013 24.044 10.1244 24.4956L12.0415 23.9257C12.0099 23.8194 12 23.6832 12 22.9998H10ZM13.3517 24.8579C12.6202 24.5658 12.4647 24.4922 12.3799 24.4252L11.1397 25.9943C11.5115 26.2882 12.0179 26.4789 12.6101 26.7153L13.3517 24.8579ZM10.1244 24.4956C10.3043 25.1008 10.6444 25.6028 11.1397 25.9943L12.3799 24.4252C12.2077 24.2891 12.104 24.136 12.0415 23.9257L10.1244 24.4956ZM13.6614 14.1605C13.266 14.5559 12.916 14.8919 12.6916 15.3063L14.4503 16.2587C14.5031 16.1612 14.5924 16.058 15.0756 15.5747L13.6614 14.1605ZM14.7174 17.8434C14.4068 17.1205 14.349 16.9589 14.3364 16.8515L12.35 17.0846C12.4053 17.5554 12.6284 18.0478 12.8799 18.633L14.7174 17.8434ZM12.6916 15.3063C12.3909 15.8615 12.2764 16.4575 12.35 17.0846L14.3364 16.8515C14.3108 16.6337 14.3458 16.4516 14.4503 16.2587L12.6916 15.3063ZM18.1316 13.3845C17.5489 13.1327 17.0582 12.9091 16.5868 12.853L16.3506 14.839C16.4582 14.8518 16.6187 14.9095 17.3382 15.2204L18.1316 13.3845ZM15.0756 15.5747C15.5565 15.0938 15.6589 15.0054 15.7567 14.9525L14.8052 13.1933C14.3901 13.4179 14.0551 13.7668 13.6614 14.1605L15.0756 15.5747ZM16.5868 12.853C15.9596 12.7784 15.3606 12.8929 14.8052 13.1933L15.7567 14.9525C15.9492 14.8484 16.1333 14.8132 16.3506 14.839L16.5868 12.853ZM22.4992 10.5C21.9401 10.5 21.455 10.4901 21.003 10.6246L21.5734 12.5415C21.6798 12.5099 21.8158 12.5 22.4992 12.5V10.5ZM20.6434 13.8487C20.9336 13.1199 21.0066 12.9654 21.0737 12.8804L19.5037 11.6413C19.2099 12.0136 19.0203 12.5186 18.7853 13.1088L20.6434 13.8487ZM21.003 10.6246C20.3981 10.8046 19.8948 11.1459 19.5037 11.6413L21.0737 12.8804C21.2093 12.7086 21.3635 12.604 21.5734 12.5415L21.003 10.6246ZM12.881 27.3671C12.6295 27.9515 12.4063 28.4432 12.3507 28.9137L14.3369 29.1482C14.3496 29.0409 14.4074 28.8795 14.7181 28.1578L12.881 27.3671ZM15.0755 30.4251C14.5927 29.9424 14.5036 29.8393 14.4508 29.7418L12.6923 30.6945C12.9166 31.1086 13.2663 31.4444 13.6612 31.8393L15.0755 30.4251ZM12.3507 28.9137C12.2766 29.5414 12.3911 30.1387 12.6923 30.6945L14.4508 29.7418C14.3462 29.5488 14.3112 29.3662 14.3369 29.1482L12.3507 28.9137ZM31.3391 14.1611C30.9448 13.7667 30.6095 13.4175 30.1958 13.1933L29.2427 14.9515C29.3401 15.0043 29.443 15.0933 29.9249 15.5753L31.3391 14.1611ZM27.6564 15.2183C28.3808 14.9079 28.5431 14.8499 28.6503 14.8374L28.4185 12.8509C27.9482 12.9058 27.4551 13.1287 26.8687 13.3799L27.6564 15.2183ZM30.1958 13.1933C29.6407 12.8924 29.0456 12.7777 28.4185 12.8509L28.6503 14.8374C28.8684 14.812 29.0496 14.8469 29.2427 14.9515L30.1958 13.1933ZM32.1206 18.6325C32.3719 18.048 32.5949 17.5562 32.6502 17.0856L30.6639 16.852C30.6513 16.9594 30.5935 17.1208 30.2832 17.8427L32.1206 18.6325ZM29.9249 15.5753C30.408 16.0583 30.4972 16.1615 30.55 16.259L32.3086 15.3064C32.0842 14.8922 31.7343 14.5562 31.3391 14.1611L29.9249 15.5753ZM32.6502 17.0856C32.724 16.4583 32.6094 15.8617 32.3086 15.3064L30.55 16.259C30.6545 16.4518 30.6895 16.6342 30.6639 16.852L32.6502 17.0856ZM26.2152 13.1106C25.9785 12.5179 25.7876 12.0112 25.4937 11.6395L23.9247 12.8798C23.9917 12.9646 24.0654 13.1203 24.3579 13.8525L26.2152 13.1106ZM22.4992 12.5C23.1827 12.5 23.319 12.5099 23.4252 12.5415L23.9951 10.6244C23.5435 10.4901 23.0584 10.5 22.4992 10.5V12.5ZM25.4937 11.6395C25.1021 11.1442 24.6003 10.8043 23.9951 10.6244L23.4252 12.5415C23.6357 12.604 23.7886 12.7076 23.9247 12.8798L25.4937 11.6395ZM12.6092 19.2852C12.0186 19.5205 11.5132 19.7104 11.1411 20.0042L12.3804 21.574C12.4653 21.5069 12.62 21.4338 13.3495 21.1431L12.6092 19.2852ZM12 22.9998C12 22.3162 12.0099 22.18 12.0415 22.0737L10.1245 21.5034C9.99012 21.9553 10 22.4405 10 22.9998H12ZM11.1411 20.0042C10.6456 20.3954 10.3045 20.8984 10.1245 21.5034L12.0415 22.0737C12.104 21.8637 12.2084 21.7097 12.3804 21.574L11.1411 20.0042ZM35 22.9997C35 22.4397 35.0099 21.9537 34.875 21.5011L32.9583 22.0724C32.9901 22.1789 33 22.3152 33 22.9997H35ZM31.6509 21.1426C32.3804 21.4331 32.5349 21.5061 32.6199 21.5733L33.8598 20.004C33.4871 19.7096 32.9816 19.5197 32.3909 19.2845L31.6509 21.1426ZM34.875 21.5011C34.6951 20.8973 34.3542 20.3947 33.8598 20.004L32.6199 21.5733C32.7914 21.7088 32.8959 21.8629 32.9583 22.0724L34.875 21.5011ZM33 22.9997C33 23.6844 32.9901 23.8207 32.9583 23.9272L34.875 24.4985C35.0099 24.0459 35 23.5598 35 22.9997H33ZM32.3902 26.7153C32.9812 26.48 33.487 26.2901 33.8597 25.9956L32.6199 24.4263C32.5349 24.4935 32.3802 24.5666 31.6503 24.8572L32.3902 26.7153ZM32.9583 23.9272C32.8959 24.1368 32.7915 24.2907 32.6199 24.4263L33.8597 25.9956C34.3543 25.6049 34.695 25.1024 34.875 24.4985L32.9583 23.9272Z" fill="#474C54" mask="url(#path-1-inside-1_293_349)"/>
<circle cx="22.5" cy="23" r="2.95" stroke="#F58220"/>
</svg>
