<svg width="45" height="46" viewBox="0 0 45 46" fill="none" xmlns="http://www.w3.org/2000/svg">
<path d="M28.3947 25.6138C31.2747 26.0312 34.9999 27.3773 34.9999 29.6521V29.6521C34.9999 31.381 33.5984 32.7825 31.8695 32.7825H30.826H28.7391" stroke="#F58220" stroke-linecap="round"/>
<path d="M19.3478 22.3478C21.653 22.3478 23.5217 20.4791 23.5217 18.1739C23.5217 15.8687 21.653 14 19.3478 14C17.0426 14 15.1739 15.8687 15.1739 18.1739C15.1739 20.4791 17.0426 22.3478 19.3478 22.3478Z" stroke="#474C54"/>
<path d="M25.2643 14.2504C25.7025 14.1043 26.1617 14 26.6521 14C28.9582 14 30.826 15.8678 30.826 18.1739C30.826 20.48 28.9582 22.3478 26.6521 22.3478C26.1617 22.3478 25.7025 22.2435 25.2643 22.0974" stroke="#F58220" stroke-linecap="round"/>
<path fill-rule="evenodd" clip-rule="evenodd" d="M19.3478 25.4783C16.5617 25.4783 11 26.8765 11 29.6522V29.6522C11 31.3811 12.4015 32.7826 14.1304 32.7826H24.5652C26.2941 32.7826 27.6957 31.3811 27.6957 29.6522V29.6522C27.6957 26.8765 22.1339 25.4783 19.3478 25.4783Z" stroke="#474C54"/>
</svg>
