<svg width="45" height="46" viewBox="0 0 45 46" fill="none" xmlns="http://www.w3.org/2000/svg">
<path d="M15.047 18.9984C14.9179 18.0947 15.6191 17.2863 16.5319 17.2863H33.7419C34.6986 17.2863 35.4109 18.1699 35.2076 19.1049L32.8958 29.7396C32.7459 30.4291 32.1357 30.921 31.43 30.921H18.0512C17.3047 30.921 16.6718 30.3721 16.5663 29.6331L15.047 18.9984Z" stroke="#474C54" stroke-linejoin="round"/>
<path d="M20.4979 21.8523C20.4979 23.0189 21.3384 23.9095 22.6179 23.9095C23.9099 23.9095 24.7504 23.0189 24.7504 21.8523C24.7504 20.6732 23.9099 19.7449 22.6179 19.7449C21.3384 19.7449 20.4979 20.6732 20.4979 21.8523ZM22.1921 27.6272C22.0235 27.8912 22.2131 28.2372 22.5263 28.2372C22.6615 28.2372 22.7874 28.1683 22.8603 28.0545L27.7042 20.4881C27.8752 20.2209 27.6834 19.8703 27.3662 19.8703C27.2292 19.8703 27.1017 19.9402 27.0279 20.0557L22.1921 27.6272ZM23.6089 21.8523C23.6089 22.5046 23.1949 22.9311 22.6179 22.9311C22.0534 22.9311 21.6269 22.5046 21.6269 21.8523C21.6269 21.1498 22.0534 20.7359 22.6179 20.7359C23.1949 20.7359 23.6089 21.1498 23.6089 21.8523ZM25.1016 26.318C25.1016 27.4846 25.9421 28.3878 27.2216 28.3878C28.501 28.3878 29.354 27.4846 29.354 26.318C29.354 25.1388 28.501 24.2106 27.2216 24.2106C25.9421 24.2106 25.1016 25.1388 25.1016 26.318ZM28.2251 26.318C28.2251 26.9954 27.7986 27.4093 27.2216 27.4093C26.6445 27.4093 26.2306 26.9954 26.2306 26.318C26.2306 25.6281 26.6445 25.2016 27.2216 25.2016C27.7986 25.2016 28.2251 25.6281 28.2251 26.318Z" fill="#F58220"/>
<path d="M15.8151 24.2467L14.023 14.3902C13.8501 13.4392 13.0219 12.748 12.0553 12.748L9 12.748" stroke="#474C54" stroke-linecap="round" stroke-linejoin="round"/>
<circle cx="20.4989" cy="32.5907" r="1.59067" stroke="#474C54"/>
<circle cx="28.9051" cy="32.5907" r="1.59067" stroke="#474C54"/>
</svg>
