<svg width="45" height="46" viewBox="0 0 45 46" fill="none" xmlns="http://www.w3.org/2000/svg">
<rect x="12.5" y="19.625" width="20.0833" height="13.375" rx="1.5" stroke="#474C54" stroke-linejoin="round"/>
<path d="M29.25 19.125V17.2083C29.25 13.5034 26.2466 10.5 22.5417 10.5V10.5C18.8368 10.5 15.8333 13.5034 15.8333 17.2083V19.125" stroke="#474C54"/>
<path d="M26 19.5V17C26 15.067 24.433 13.5 22.5 13.5V13.5C20.567 13.5 19 15.067 19 17V19.5" stroke="#474C54"/>
<path d="M20.625 24.6305C20.625 23.5528 21.4997 22.6781 22.5774 22.6781C23.6551 22.6781 24.5298 23.5528 24.5298 24.6305C24.5298 25.1459 24.3279 25.6113 24 25.9585C23.7568 26.2161 23.5525 26.5299 23.5508 26.8842L23.5405 28.9755C23.5379 29.5127 23.1016 29.9469 22.5643 29.9469V29.9469C22.0233 29.9469 21.5855 29.5069 21.5882 28.9659L21.5984 26.8907C21.6001 26.533 21.395 26.2147 21.1503 25.9538C20.825 25.6071 20.625 25.1436 20.625 24.6305Z" stroke="#F58220"/>
</svg>
