<svg width="24" height="24" viewBox="0 0 24 24" fill="none" xmlns="http://www.w3.org/2000/svg">
<path fill-rule="evenodd" clip-rule="evenodd" d="M18.0772 15.7232L18.0765 15.7239C17.4181 16.3768 16.7666 17.0228 16.1271 17.6787L15.4112 16.9807L16.129 17.6767C15.9824 17.8279 15.7274 18.0496 15.351 18.1248C14.9529 18.2045 14.6163 18.0837 14.386 17.9553C14.2394 17.8755 14.0922 17.8031 13.9244 17.7206C13.8768 17.6972 13.8275 17.6729 13.7761 17.6474C13.554 17.5375 13.3022 17.4093 13.0545 17.2553L13.05 17.2525C11.0289 15.9812 9.35372 14.3578 7.89037 12.5629L7.88992 12.5623C7.15298 11.6571 6.46717 10.6519 5.98113 9.49526C5.90305 9.30966 5.80827 9.01316 5.87061 8.65991C5.93427 8.29916 6.13152 8.04529 6.29538 7.88143L6.30142 7.87539L6.30757 7.86945C6.86212 7.33354 7.40443 6.78593 7.95748 6.22749C8.05034 6.13372 8.14351 6.03964 8.23708 5.94527L8.23792 5.94442C8.55105 5.62937 8.62213 5.37869 8.6219 5.21364C8.62167 5.04812 8.54944 4.79489 8.23241 4.47593L8.23079 4.4743C7.97608 4.21685 7.72107 3.96183 7.46386 3.70463L7.46281 3.70357C7.2072 3.44796 6.94941 3.19018 6.69132 2.92932C6.50981 2.7478 6.33161 2.56836 6.15485 2.39036C5.80592 2.03898 5.46258 1.69324 5.11038 1.34829C4.82807 1.0735 4.58153 0.999411 4.40245 0.999665C4.22381 0.999918 3.97901 1.07429 3.6996 1.35012L3.69821 1.35149C3.4549 1.59073 3.20127 1.84679 2.94234 2.1082C2.53935 2.51506 2.12352 2.93487 1.7138 3.32444L1.71231 3.32586L1.71231 3.32586C1.28437 3.73107 1.06518 4.21572 1.01626 4.83711C0.927659 6.0013 1.209 7.1397 1.66257 8.34746L1.66387 8.35094C2.58748 10.8384 4.00045 13.0662 5.73988 15.1321L5.74025 15.1326C8.07769 17.9119 10.8616 20.1052 14.1186 21.6886C15.5858 22.4009 17.0288 22.9093 18.5595 22.993L18.5609 22.993C19.516 23.0466 20.2177 22.8146 20.7919 22.171L20.7928 22.17C21.185 21.7316 21.6341 21.2948 22.0508 20.8896C22.2523 20.6936 22.4462 20.505 22.6224 20.3272C22.9227 20.023 22.9993 19.7677 23 19.591C23.0007 19.4162 22.9281 19.1681 22.6357 18.8737C21.5886 17.8211 20.5357 16.7737 19.4806 15.7242C19.1974 15.4451 18.952 15.3715 18.7764 15.3715C18.601 15.3715 18.3573 15.4448 18.0772 15.7232ZM20.1845 15.0138C19.3171 14.1575 18.2342 14.1575 17.3724 15.0138C16.715 15.6657 16.0575 16.3176 15.4111 16.9806C15.2343 17.1629 15.0852 17.2016 14.8697 17.08C14.7011 16.9881 14.5282 16.9031 14.3554 16.8181C14.0922 16.6887 13.8293 16.5594 13.5824 16.406C11.6764 15.2072 10.0798 13.6658 8.66543 11.931C7.96379 11.0691 7.3395 10.1465 6.90304 9.10786C6.81465 8.89792 6.83122 8.7598 7.00249 8.58854C7.56563 8.04433 8.11661 7.48796 8.66931 6.92984C8.76187 6.83638 8.85447 6.74287 8.94719 6.64936C9.84772 5.74331 9.84772 4.68256 8.94167 3.77098C8.68477 3.51132 8.42788 3.25443 8.17098 2.99753C7.91408 2.74063 7.65717 2.48372 7.40027 2.22406C7.22347 2.04726 7.04729 1.86985 6.87111 1.69244C6.51876 1.33764 6.16641 0.982831 5.80915 0.632937C4.94177 -0.212345 3.85892 -0.212345 2.99707 0.638462C2.73181 0.899294 2.47098 1.16278 2.21033 1.42609C1.81951 1.82088 1.42908 2.21528 1.02474 2.59974C0.400446 3.19088 0.0855372 3.91462 0.0192405 4.7599C-0.0857292 6.13556 0.251279 7.43387 0.726405 8.69903C1.69876 11.3177 3.17938 13.6437 4.97492 15.7762C7.40027 18.6601 10.2952 20.9418 13.6819 22.5882C15.2067 23.3285 16.7868 23.8975 18.505 23.9915C19.6873 24.0578 20.7148 23.7594 21.538 22.8368C21.9084 22.4228 22.3098 22.0327 22.7109 21.643C22.92 21.4397 23.1291 21.2366 23.3336 21.0302C24.2175 20.1352 24.223 19.0524 23.3446 18.1684C22.2949 17.1132 21.2397 16.0635 20.1845 15.0138Z" fill="#FAA61A"/>
</svg>
