<svg width="45" height="45" viewBox="0 0 45 45" fill="none" xmlns="http://www.w3.org/2000/svg">
<rect width="45" height="45" rx="22.5" fill="black" fill-opacity="0.01"/>
<path d="M23 22C22.7239 22 22.5 22.2239 22.5 22.5C22.5 22.7761 22.7239 23 23 23L23 22ZM34.6265 23C34.9026 23 35.1265 22.7761 35.1265 22.5C35.1265 22.2239 34.9026 22 34.6265 22L34.6265 23ZM31.2779 25.6537C31.0866 25.8528 31.093 26.1693 31.2922 26.3606C31.4913 26.5519 31.8078 26.5455 31.9991 26.3463L31.2779 25.6537ZM35 22.5L35.3606 22.8463C35.5465 22.6528 35.5465 22.3472 35.3606 22.1537L35 22.5ZM31.9991 18.6537C31.8078 18.4545 31.4913 18.4481 31.2922 18.6394C31.093 18.8307 31.0866 19.1472 31.2779 19.3463L31.9991 18.6537ZM23 23L34.6265 23L34.6265 22L23 22L23 23ZM31.9991 26.3463L35.3606 22.8463L34.6394 22.1537L31.2779 25.6537L31.9991 26.3463ZM35.3606 22.1537L31.9991 18.6537L31.2779 19.3463L34.6394 22.8463L35.3606 22.1537Z" fill="#F58220"/>
<path d="M28 17.4653C28 16.9466 28 16.4485 28 15.9998C28 14.8953 27.1046 14 26 14L18 14C16.8954 14 16 14.8954 16 16L16 29C16 30.1046 16.8954 31 18 31L26 31C27.1046 31 28 30.1046 28 29L28 27.5347" stroke="#474C54" stroke-linecap="round"/>
</svg>
